<svg xmlns="http://www.w3.org/2000/svg" viewBox="0 0 800 520" role="img" aria-labelledby="t d">
  <title id="t">Roadmap ingenierie</title>
  <desc id="d">Objectif alternance et trajectoire projet</desc>
  <rect width="800" height="520" fill="#0e1828"/>
  <g fill="none" stroke="#a8caef" stroke-width="2" stroke-opacity="0.74">
    <path d="M86 412h620"/>
    <path d="M146 412c0-56 30-98 74-98s74 42 74 98"/>
    <path d="M326 412c0-56 30-98 74-98s74 42 74 98"/>
    <path d="M506 412c0-56 30-98 74-98s74 42 74 98"/>
    <rect x="96" y="94" width="176" height="78" rx="10"/>
    <rect x="312" y="94" width="176" height="78" rx="10"/>
    <rect x="528" y="94" width="176" height="78" rx="10"/>
    <path d="M272 133h40M488 133h40"/>
    <circle cx="272" cy="133" r="4" fill="#a8caef"/>
    <circle cx="312" cy="133" r="4" fill="#a8caef"/>
    <circle cx="488" cy="133" r="4" fill="#a8caef"/>
    <circle cx="528" cy="133" r="4" fill="#a8caef"/>
    <path d="M184 172v92M400 172v92M616 172v92"/>
    <rect x="130" y="264" width="108" height="42" rx="8"/>
    <rect x="346" y="264" width="108" height="42" rx="8"/>
    <rect x="562" y="264" width="108" height="42" rx="8"/>
  </g>
  <g fill="#d8e9fc" font-family="monospace" font-size="19">
    <text x="120" y="140">STAGE</text>
    <text x="350" y="140">ALTERNANCE</text>
    <text x="578" y="140">INGENIEUR</text>
    <text x="146" y="291">DATA</text>
    <text x="354" y="291">EMBEDDED</text>
    <text x="585" y="291">MOBILITY</text>
    <text x="130" y="466">OBJECTIVE: INDUSTRIAL IMPACT PROJECTS</text>
  </g>
</svg>
